<?xml version="1.0" standalone="no"?>
<!DOCTYPE svg PUBLIC "-//W3C//DTD SVG 20010904//EN"
 "http://www.w3.org/TR/2001/REC-SVG-20010904/DTD/svg10.dtd">
<svg version="1.0" xmlns="http://www.w3.org/2000/svg"
 width="1300.000000pt" height="1300.000000pt" viewBox="0 0 1300.000000 1300.000000"
 preserveAspectRatio="xMidYMid meet">
<metadata>
Created by potrace 1.14, written by Peter Selinger 2001-2017
</metadata>
<g transform="translate(0.000000,1300.000000) scale(0.100000,-0.100000)"
fill="#000000" stroke="none">
<path d="M5230 12147 c-74 -19 -125 -80 -136 -160 -9 -67 21 -124 88 -165 225
-138 342 -214 499 -322 100 -69 187 -129 193 -135 11 -10 139 -96 226 -151 24
-16 99 -61 165 -99 133 -78 128 -71 112 -175 -12 -80 -16 -109 -27 -193 -6
-45 -13 -93 -15 -107 -4 -26 -12 -94 -21 -170 -10 -85 -16 -125 -19 -129 -4
-4 -234 115 -357 185 -43 24 -79 44 -82 44 -2 0 -34 18 -70 40 -36 22 -68 40
-70 40 -7 0 -396 237 -498 303 -120 77 -146 89 -189 89 -123 -2 -208 -152
-150 -265 21 -41 48 -66 122 -112 27 -16 106 -66 176 -110 70 -44 135 -84 145
-90 9 -5 104 -60 210 -121 106 -62 213 -123 238 -136 116 -64 203 -110 296
-158 88 -45 105 -57 134 -101 18 -28 39 -53 47 -56 11 -5 13 -21 9 -82 -27
-377 -28 -1059 -1 -1516 6 -98 16 -241 20 -270 8 -65 16 -205 12 -205 -3 0
-27 18 -53 40 -65 54 -123 81 -175 81 -55 1 -86 -11 -123 -47 -61 -61 -78
-168 -47 -284 24 -87 115 -294 256 -585 64 -132 144 -303 177 -380 70 -160 79
-177 116 -201 63 -42 161 -11 236 73 36 41 131 192 142 225 4 12 15 34 25 48
10 14 46 99 80 190 57 153 168 413 207 487 55 102 102 178 159 258 81 109 95
141 88 197 -12 92 -87 153 -190 152 -72 -1 -120 -17 -285 -94 -108 -51 -158
-72 -167 -71 -2 0 -18 -6 -38 -15 -34 -14 -35 -14 -36 8 0 13 -2 30 -3 38 -2
8 -6 58 -10 110 -4 52 -10 122 -12 155 -33 437 -37 1151 -9 1530 2 28 6 90 9
139 3 49 7 90 8 91 2 1 82 41 178 90 298 150 562 289 860 453 85 47 164 91
175 97 94 51 127 112 105 195 -21 80 -101 140 -184 140 -44 0 -109 -29 -266
-117 -78 -44 -149 -83 -225 -123 -44 -23 -107 -57 -140 -75 -172 -93 -449
-235 -458 -235 -4 0 -4 17 -2 38 22 171 57 423 61 449 5 28 10 32 52 38 64 9
148 43 267 105 192 100 601 306 670 337 39 17 102 46 140 63 39 17 140 61 225
96 233 96 273 118 298 163 67 119 -9 271 -134 271 -43 0 -215 -67 -531 -206
-238 -105 -300 -135 -426 -211 -48 -29 -90 -53 -92 -53 -3 0 -28 -15 -57 -33
-66 -42 -273 -143 -312 -153 -28 -7 -29 -6 -23 27 4 19 9 52 12 74 4 22 8 51
10 64 6 32 -18 86 -52 117 -39 36 -87 54 -145 54 -107 0 -166 -57 -181 -172
-1 -15 -6 -30 -9 -34 -12 -11 -241 136 -547 350 -242 170 -271 190 -391 263
-188 115 -223 128 -290 110z m1569 -4624 c-82 -135 -77 -129 -83 -103 -3 14
-7 44 -10 67 -6 46 -9 43 89 66 11 3 21 5 23 6 2 0 -7 -16 -19 -36z m-507 -63
c63 -14 63 -13 74 -120 l7 -65 -52 60 c-71 83 -118 150 -100 143 8 -3 40 -11
71 -18z"/>
<path d="M3499 10717 c-93 -90 -193 -185 -429 -407 -349 -330 -408 -397 -489
-557 -93 -183 -101 -422 -21 -599 41 -91 83 -149 167 -231 123 -120 276 -183
448 -185 140 -1 286 44 400 122 26 18 48 30 50 28 1 -1 6 -75 9 -163 12 -278
16 -377 21 -490 2 -60 7 -177 11 -260 3 -82 8 -152 10 -155 3 -2 15 7 28 20
13 14 90 88 172 165 232 220 236 223 230 243 -3 9 -8 64 -11 122 -3 58 -8 125
-10 150 -6 61 -13 157 -20 260 -3 47 -8 105 -10 130 -2 25 -7 88 -10 140 -3
52 -8 113 -11 134 -5 38 -3 41 81 122 48 46 91 84 97 84 6 0 18 -8 27 -19 14
-15 197 -211 336 -356 128 -135 168 -175 174 -175 4 0 56 46 116 103 59 56
142 134 183 173 l76 71 -21 27 c-12 14 -88 97 -171 183 -82 87 -170 179 -193
204 -68 72 -288 304 -349 368 -30 32 -118 125 -195 206 -77 82 -158 167 -180
190 -40 42 -267 282 -362 383 -27 28 -54 52 -59 52 -5 0 -48 -37 -95 -83z m3
-570 c17 -18 283 -297 375 -396 40 -42 73 -80 73 -86 0 -5 -11 -19 -24 -30
-13 -11 -86 -79 -162 -152 -76 -72 -157 -148 -179 -167 -38 -35 -175 -113
-175 -101 0 3 -8 1 -19 -4 -20 -11 -112 -16 -150 -7 -47 11 -109 48 -154 91
-111 110 -128 252 -47 404 35 65 55 86 265 286 87 83 163 155 169 162 14 15
12 15 28 0z"/>
<path d="M9869 10362 c-30 -16 -162 -84 -294 -152 -251 -129 -455 -233 -740
-380 -93 -48 -249 -128 -345 -178 -435 -222 -635 -325 -640 -329 -2 -2 81 -86
185 -187 l188 -182 189 94 189 95 38 -39 c44 -46 506 -494 574 -557 l46 -43
-38 -84 c-20 -47 -60 -132 -89 -190 l-51 -105 187 -182 c102 -101 189 -183
193 -183 3 0 22 35 42 78 19 42 75 158 122 257 48 99 102 212 120 250 18 39
65 138 105 220 40 83 89 186 110 230 21 44 68 143 105 220 79 165 144 302 209
440 26 55 51 107 56 115 6 8 13 22 17 30 3 8 32 71 65 139 32 68 58 127 58
131 0 4 -109 112 -242 241 -133 129 -252 244 -264 257 -29 28 -30 28 -95 -6z
m27 -555 c2 -7 -52 -130 -122 -273 -69 -142 -152 -313 -184 -379 -120 -252
-141 -295 -145 -295 -2 0 -74 69 -160 153 -86 83 -197 190 -246 237 -70 67
-86 89 -77 98 7 7 20 12 29 12 10 0 19 3 21 8 2 4 35 23 73 43 39 20 167 86
285 147 118 61 280 145 360 186 80 41 149 75 153 76 4 0 10 -6 13 -13z"/>
<path d="M1546 8154 c-8 -31 -44 -207 -52 -249 -3 -16 -10 -50 -15 -75 -6 -25
-12 -56 -14 -70 -12 -74 -16 -96 -20 -107 -3 -9 -174 -855 -189 -933 -2 -14
-9 -45 -15 -70 -21 -88 -30 -81 157 -119 92 -18 178 -35 192 -37 14 -3 30 -6
36 -8 7 -3 25 62 49 182 20 103 39 194 40 202 7 30 87 426 91 450 16 84 56
265 59 269 3 2 64 -8 137 -23 73 -15 144 -30 158 -32 62 -11 175 -35 177 -37
2 -2 -15 -88 -43 -222 -2 -11 -6 -31 -9 -45 -6 -32 -10 -52 -35 -175 -11 -55
-22 -109 -24 -120 -2 -11 -20 -99 -40 -195 -19 -96 -37 -187 -40 -203 -3 -15
-8 -36 -11 -47 -5 -15 -1 -21 17 -24 13 -3 70 -15 128 -27 58 -11 116 -23 130
-26 14 -3 38 -6 55 -7 29 -1 30 0 46 81 10 45 20 94 23 110 2 15 12 64 21 108
9 44 19 94 21 110 3 17 9 46 14 65 5 19 12 52 16 74 3 21 8 47 10 57 16 71 29
135 50 244 9 44 17 85 18 90 2 6 6 26 10 46 8 36 9 37 39 28 18 -4 43 -10 57
-13 60 -10 351 -69 406 -81 l21 -5 -29 -142 c-16 -79 -31 -152 -33 -163 -3
-20 -21 -111 -29 -150 -15 -71 -76 -375 -80 -400 -3 -16 -15 -73 -26 -125 -11
-52 -23 -109 -26 -127 -5 -33 -1 -36 56 -47 14 -2 72 -14 130 -25 58 -12 120
-24 139 -27 19 -3 45 -10 58 -15 13 -5 23 -7 23 -6 0 2 14 68 30 147 17 80 33
159 36 175 2 17 16 82 29 145 13 63 26 131 30 150 3 19 17 90 31 156 14 67 27
134 30 150 7 38 111 555 124 614 5 25 12 59 15 77 5 34 6 33 -80 48 -33 5 -66
12 -105 20 -14 3 -34 7 -45 9 -11 2 -76 16 -145 30 -69 14 -136 27 -150 30
-14 2 -58 12 -97 20 -40 9 -87 18 -105 21 -43 7 -31 4 -323 65 -110 22 -211
43 -225 46 -14 3 -146 29 -295 59 -148 30 -281 56 -295 59 -14 3 -72 15 -130
26 -58 12 -116 24 -130 26 -14 3 -30 6 -37 9 -6 2 -14 -8 -17 -21z"/>
<path d="M11480 7984 c-41 -6 -100 -15 -131 -18 -31 -4 -65 -8 -75 -10 -11 -2
-41 -7 -69 -10 -93 -13 -183 -25 -225 -31 -14 -2 -45 -6 -70 -9 -25 -3 -54 -7
-65 -10 -24 -4 -108 -17 -150 -22 -56 -6 -130 -16 -146 -19 -9 -2 -40 -6 -69
-10 -29 -4 -61 -8 -70 -10 -9 -2 -41 -6 -71 -10 -30 -3 -65 -8 -79 -10 -14 -2
-45 -7 -70 -10 -25 -3 -56 -8 -70 -10 -68 -10 -180 -25 -220 -30 -25 -3 -52
-7 -60 -9 -8 -3 -40 -7 -70 -11 -30 -3 -66 -7 -80 -10 -40 -6 -171 -24 -219
-30 -25 -3 -46 -7 -48 -9 -4 -3 8 -106 21 -186 3 -14 7 -45 11 -70 23 -174 35
-253 38 -256 1 -1 25 2 52 6 28 4 79 11 115 15 36 3 72 8 80 10 8 2 35 7 60
10 25 3 56 8 70 10 14 2 49 7 79 10 30 4 62 8 71 10 9 2 41 6 71 10 30 3 65 8
79 10 100 18 93 23 104 -65 4 -25 10 -70 15 -100 11 -63 9 -67 -64 -145 -26
-27 -70 -75 -98 -105 -28 -30 -80 -87 -116 -125 -80 -85 -290 -311 -355 -382
l-48 -52 11 -53 c5 -29 13 -75 16 -103 3 -27 7 -61 10 -75 6 -35 13 -86 20
-146 3 -28 7 -60 9 -71 3 -11 7 -44 11 -74 4 -30 8 -55 10 -57 4 -4 20 13 80
84 28 32 66 77 86 99 20 22 49 55 65 74 16 19 34 39 39 45 6 6 39 45 75 86 36
41 67 77 70 80 6 6 126 145 160 184 22 26 56 65 121 139 15 17 17 15 29 -30 7
-26 17 -52 21 -57 5 -6 9 -15 9 -22 0 -29 87 -160 149 -223 122 -125 283 -193
456 -193 55 1 111 3 125 6 104 23 134 33 205 66 249 120 390 368 396 700 2 55
-2 104 -15 225 -3 22 -15 106 -22 145 -2 14 -6 43 -9 65 -3 22 -7 56 -10 75
-3 19 -7 55 -10 79 -3 23 -7 55 -9 70 -3 14 -8 46 -12 71 -3 25 -8 59 -10 75
-1 17 -5 44 -8 60 -3 17 -10 68 -16 115 -6 47 -14 101 -17 120 -3 19 -8 58
-12 85 -6 49 -7 50 -41 51 -19 0 -69 -5 -110 -12z m-176 -576 c3 -13 10 -59
16 -103 6 -44 13 -91 15 -105 2 -14 7 -50 10 -80 4 -30 9 -64 11 -75 2 -11 6
-47 10 -80 3 -33 7 -64 8 -70 2 -5 -1 -41 -5 -80 -24 -201 -157 -320 -348
-311 -84 5 -146 32 -203 90 -76 77 -111 164 -133 336 -3 25 -8 61 -11 80 -2
19 -6 49 -9 65 -2 17 -6 46 -9 65 -23 153 -27 200 -18 201 4 0 14 2 22 3 8 2
39 6 68 10 28 3 67 8 85 11 183 26 249 35 292 40 28 4 65 10 83 13 19 4 51 8
73 10 33 2 39 -1 43 -20z"/>
<path d="M3335 5982 c-6 -5 -82 -41 -170 -82 -88 -40 -176 -81 -195 -91 -19
-11 -38 -19 -41 -19 -4 0 -73 -31 -153 -70 -81 -38 -149 -70 -151 -70 -1 0
-56 -25 -121 -56 -66 -31 -148 -69 -183 -85 -35 -17 -161 -75 -280 -131 -119
-55 -234 -108 -256 -118 -22 -10 -78 -36 -125 -58 -47 -22 -133 -63 -192 -90
-60 -28 -108 -54 -108 -58 0 -7 63 -147 141 -311 26 -56 71 -153 100 -215 101
-222 172 -364 217 -433 194 -301 439 -491 727 -566 117 -30 321 -35 440 -10
284 60 541 218 696 427 90 122 167 308 185 445 3 24 7 55 10 69 6 37 5 207 -1
265 -5 41 -29 172 -39 210 -26 104 -73 226 -150 388 -31 65 -56 120 -56 122 0
1 -28 63 -63 136 -35 74 -92 196 -127 272 -62 134 -77 153 -105 129z m-95
-669 c175 -371 202 -454 204 -633 2 -132 -56 -299 -141 -400 -140 -169 -397
-285 -605 -273 -132 7 -261 55 -366 136 -134 103 -216 231 -368 574 l-23 53
72 34 c40 19 93 43 118 55 25 11 99 45 164 76 64 30 118 55 120 55 2 0 56 25
121 56 114 54 168 79 307 143 34 16 106 49 160 75 54 25 121 57 150 70 29 14
55 25 58 25 4 1 17 -20 29 -46z"/>
<path d="M9594 5612 c-23 -42 -79 -144 -124 -226 -78 -139 -82 -149 -64 -160
10 -6 43 -25 74 -42 30 -17 111 -62 180 -101 69 -38 152 -85 185 -103 33 -18
91 -50 128 -71 38 -22 73 -39 78 -39 5 0 9 -6 9 -13 0 -16 -109 -217 -118
-218 -4 0 -14 -2 -22 -4 -8 -1 -96 -17 -195 -35 -283 -50 -573 -102 -645 -116
-14 -2 -41 -7 -60 -10 -19 -3 -42 -7 -51 -10 -11 -3 -275 -459 -297 -515 -2
-4 14 -3 35 1 21 5 52 11 68 13 17 3 50 10 75 16 49 12 485 105 565 121 28 5
61 12 74 14 14 3 70 15 125 26 55 12 103 23 107 25 4 3 -4 -26 -17 -64 -41
-118 -52 -262 -29 -371 2 -14 7 -35 9 -46 7 -33 47 -124 74 -169 116 -187 334
-316 559 -329 56 -3 93 1 191 18 99 18 234 94 336 187 109 100 190 220 356
524 12 22 31 58 44 80 12 22 49 90 83 150 33 61 71 128 83 150 13 22 33 58 45
80 12 22 45 81 73 131 29 51 52 96 52 100 0 8 -129 80 -619 350 -31 17 -132
74 -226 126 -93 52 -192 108 -220 123 -27 15 -88 49 -135 75 -47 26 -105 59
-130 72 -25 14 -172 96 -326 182 -155 86 -283 156 -285 156 -2 0 -23 -35 -45
-78z m1089 -1098 c155 -86 286 -160 291 -164 5 -5 -49 -111 -120 -240 -152
-273 -200 -333 -307 -384 -64 -31 -79 -35 -142 -33 -85 3 -164 38 -227 102
-60 58 -82 114 -85 211 -3 108 17 169 104 324 11 19 35 62 53 95 18 33 49 89
69 125 20 36 43 77 51 93 7 15 18 27 23 27 5 0 136 -70 290 -156z"/>
<path d="M4188 3827 c-80 -100 -207 -261 -283 -357 -77 -96 -216 -272 -310
-390 -94 -118 -221 -278 -282 -355 -61 -77 -179 -225 -262 -330 -83 -104 -151
-192 -151 -195 0 -3 65 -32 143 -64 78 -32 160 -67 182 -76 123 -54 147 -62
154 -54 4 5 30 38 57 74 27 36 54 72 61 80 7 8 146 186 309 395 163 209 305
392 317 407 12 15 99 126 192 247 160 208 203 249 198 196 -2 -36 -21 -163
-33 -230 -5 -27 -14 -86 -21 -130 -6 -44 -12 -87 -14 -95 -2 -8 -8 -51 -15
-95 -7 -44 -13 -87 -15 -95 -1 -8 -6 -40 -11 -70 -4 -30 -8 -57 -9 -60 -1 -3
-5 -32 -10 -65 -5 -33 -9 -62 -10 -65 -1 -3 -5 -27 -9 -55 -4 -27 -14 -88 -21
-135 -8 -47 -17 -105 -20 -130 -3 -25 -12 -83 -20 -130 -8 -47 -16 -102 -19
-122 -20 -131 -25 -165 -37 -232 -6 -32 -7 -62 -2 -66 9 -9 482 -210 493 -210
8 0 38 38 256 325 87 116 239 316 337 445 98 129 188 248 200 264 108 143 292
384 303 396 25 26 34 0 24 -70 -5 -36 -12 -84 -15 -108 -3 -24 -7 -53 -10 -65
-2 -12 -7 -44 -10 -72 -8 -60 -8 -62 -34 -245 -11 -80 -23 -165 -26 -189 -3
-23 -7 -55 -9 -70 -3 -14 -8 -46 -11 -71 -3 -25 -8 -56 -10 -70 -7 -52 -17
-116 -20 -140 -3 -14 -7 -45 -10 -70 -3 -25 -10 -72 -15 -105 -5 -33 -12 -84
-15 -114 -4 -30 -8 -61 -10 -70 -1 -9 -6 -38 -9 -66 -4 -27 -8 -61 -11 -75 -6
-33 -12 -83 -20 -150 l-6 -55 231 -98 c128 -54 234 -96 236 -94 5 5 19 88 29
176 4 30 9 63 11 75 2 11 6 47 9 80 4 33 8 62 9 65 2 3 7 35 10 71 4 36 8 76
11 90 2 13 7 46 10 74 3 28 8 62 10 76 2 14 6 48 9 75 4 28 8 61 11 75 2 14 7
48 10 75 3 28 8 61 10 75 2 14 6 48 10 75 9 80 26 208 30 235 2 14 7 45 10 70
8 70 15 123 20 150 2 14 7 50 10 80 4 30 8 66 10 80 2 14 6 43 9 65 12 90 17
131 21 155 2 14 7 50 10 80 3 30 7 66 10 80 3 14 7 43 10 65 2 22 7 63 10 91
l6 50 -335 142 c-184 78 -339 142 -343 142 -4 -1 -37 -42 -73 -93 -36 -51 -70
-99 -77 -107 -16 -20 -177 -239 -228 -310 -22 -30 -42 -57 -45 -60 -3 -3 -31
-41 -63 -85 -51 -73 -228 -314 -393 -538 -36 -48 -70 -84 -76 -81 -5 4 -7 24
-4 48 9 68 26 168 36 216 5 25 12 63 15 85 7 47 5 37 45 270 17 99 33 191 35
205 2 14 14 81 26 150 12 69 23 139 25 155 2 17 9 55 14 85 6 30 12 67 15 83
3 15 7 39 10 55 24 130 34 217 28 223 -7 6 -223 99 -604 259 l-67 28 -144
-181z"/>
<path d="M8078 3725 c-2 -2 -23 -6 -48 -10 -25 -3 -72 -13 -105 -21 -33 -9
-67 -17 -75 -19 -97 -21 -350 -138 -455 -210 -231 -158 -400 -384 -469 -627
-64 -222 -53 -469 30 -699 159 -441 464 -713 879 -787 139 -25 346 -20 460 10
22 5 51 12 65 14 51 9 208 68 305 115 145 70 247 141 356 249 141 138 233 283
288 449 18 56 26 92 46 211 15 88 5 265 -21 379 -86 371 -322 691 -619 838
-67 34 -198 78 -260 89 -22 4 -49 9 -60 12 -22 5 -312 12 -317 7z m241 -481
c239 -69 436 -294 505 -577 90 -366 -109 -716 -474 -835 -90 -29 -112 -33
-216 -37 -343 -12 -637 247 -717 630 -18 88 -15 250 7 330 56 201 209 370 413
455 78 33 84 34 168 50 107 20 209 15 314 -16z"/>
</g>
</svg>
